<svg id="Layer_1" data-name="Layer 1" xmlns="http://www.w3.org/2000/svg" xmlns:xlink="http://www.w3.org/1999/xlink" viewBox="0 0 338.2 288"><defs><style>.cls-1,.cls-2{fill:none;}.cls-2{stroke:#c6c6c6;stroke-miterlimit:10;}.cls-10,.cls-3{fill:#2e3192;}.cls-4{clip-path:url(#clip-path);}.cls-5{fill:#fff;}.cls-6{fill:#ff0;}.cls-10,.cls-6,.cls-7,.cls-8,.cls-9{opacity:0.2;}.cls-7{fill:aqua;}.cls-8{fill:#ff6d00;}.cls-9{fill:lime;}</style><clipPath id="clip-path"><path class="cls-1" d="M337.41,81V91.38A24.84,24.84,0,0,0,328.25,90H314.58v40.33a24.87,24.87,0,0,0,1.42,9.17H305.66a24.87,24.87,0,0,0,1.42-9.17V90H293.25a24.87,24.87,0,0,0-9.17,1.42V81a24.87,24.87,0,0,0,9.17,1.42h13.83V70.13A24.89,24.89,0,0,0,305.66,61H316a24.89,24.89,0,0,0-1.42,9.18V82.46h13.67A24.84,24.84,0,0,0,337.41,81Z"/></clipPath></defs><rect class="cls-2" x="-80.86" y="-105.62" width="500" height="500"/><path class="cls-3" d="M56.37,226.73c.19-.48,2.54-6.54,3.3-17.25A131.6,131.6,0,0,1,53.26,92c-5.78.33-10.55.72-14.47,1.12A144.52,144.52,0,0,0,55.94,227.67Z"/><path class="cls-3" d="M66.26,51.58H80.93a131,131,0,0,1,185.16.15A132.24,132.24,0,0,1,283.42,73.1h15.21a144.8,144.8,0,0,0-23.37-30.55,144,144,0,0,0-203.65,0c-2.89,2.9-5.63,5.9-8.25,9Z"/><path class="cls-3" d="M304.39,148.6a131,131,0,0,1-222,90H64.54q3.39,3.9,7.07,7.6a144,144,0,0,0,245.76-97.6Z"/><rect class="cls-2" x="-80.86" y="-105.62" width="500" height="500"/><path class="cls-3" d="M239.17,213.11h31s-4.24-9.73-4.24-27.45V106.6h0A55,55,0,0,0,163.93,78a54.92,54.92,0,0,0-73.05-7.23V60.1H68.38c-22.32-.27-55-1.46-68.38-6C14.78,74.79,18,88.6,18,88.6s6.71-4.53,50.42-5.72V202.64c0,17.72-4.24,27.46-4.24,27.46h31s-4.24-9.74-4.24-27.46V115.1h0v-.17a32.5,32.5,0,0,1,65,.17h0v79c0,17.72-4.24,27.46-4.24,27.46h31s-4.24-9.74-4.24-27.46v-79l0-8.5a32.5,32.5,0,0,1,65,0h0v79.06C243.41,203.38,239.17,213.11,239.17,213.11Z"/><g class="cls-4"><ellipse class="cls-5" cx="320.97" cy="84.8" rx="62.57" ry="58.86"/><path class="cls-6" d="M316.85,92.63V70.91a11.54,11.54,0,0,0-23.08,0v38.2h23.08Z"/><path class="cls-7" d="M295.85,97.28V75.57a11.54,11.54,0,0,0-23.08,0v38.19h23.08Z"/><path class="cls-8" d="M339.93,86V64.29a11.54,11.54,0,0,0-23.08,0v38.19h23.08Z"/><path class="cls-9" d="M311.71,90.25V68.53a11.54,11.54,0,0,0-23.08,0v38.2h23.08Z"/><path class="cls-6" d="M305.31,106.69V85a11.54,11.54,0,0,0-23.08,0v38.19h23.08Z"/><path class="cls-7" d="M259.14,122.89V101.18a11.54,11.54,0,0,0-23.08,0v38.19h23.08Z"/><path class="cls-8" d="M328.39,100.07V78.35a11.54,11.54,0,0,0-23.08,0v38.19h23.08Z"/><path class="cls-9" d="M282.23,115.86V94.14a11.55,11.55,0,0,0-23.09,0v38.19h23.09Z"/><path class="cls-10" d="M351.48,91.14V69.42a11.55,11.55,0,0,0-23.09,0v38.2h23.09Z"/><path class="cls-6" d="M293.77,122.3V100.59a11.55,11.55,0,0,0-23.09,0v38.19h23.09Z"/><path class="cls-7" d="M247.6,138.51V116.79a11.54,11.54,0,0,0-23.08,0V155H247.6Z"/><path class="cls-8" d="M316.85,115.68V94a11.54,11.54,0,0,0-23.08,0v38.19h23.08Z"/><path class="cls-9" d="M270.68,131.47V109.76a11.54,11.54,0,0,0-23.08,0V148h23.08Z"/><path class="cls-10" d="M339.93,106.75V85a11.54,11.54,0,0,0-23.08,0v38.19h23.08Z"/><path class="cls-6" d="M282.43,140.28V118.57a11.54,11.54,0,0,0-23.08,0v38.19h23.08Z"/><path class="cls-7" d="M236.27,156.49V134.77a11.55,11.55,0,0,0-23.09,0V173h23.09Z"/><path class="cls-7" d="M325.49,142.38V120.66a11.55,11.55,0,0,0-23.09,0v38.19h23.09Z"/><path class="cls-8" d="M305.52,133.66V112a11.55,11.55,0,0,0-23.09,0v38.19h23.09Z"/><path class="cls-9" d="M259.35,149.45V127.74a11.54,11.54,0,0,0-23.08,0v38.19h23.08Z"/><path class="cls-10" d="M328.6,124.73V103a11.54,11.54,0,0,0-23.08,0v38.19H328.6Z"/><path class="cls-6" d="M279.55,143.31V121.6a11.54,11.54,0,0,0-23.08,0v38.19h23.08Z"/><path class="cls-7" d="M233.39,159.52V137.81a11.55,11.55,0,0,0-23.09,0V176h23.09Z"/><path class="cls-7" d="M348.8,118.6V96.88a11.54,11.54,0,0,0-23.08,0v38.19H348.8Z"/><path class="cls-8" d="M302.64,136.69V115a11.55,11.55,0,0,0-23.09,0v38.19h23.09Z"/><path class="cls-9" d="M256.47,152.49V130.77a11.54,11.54,0,0,0-23.08,0V169h23.08Z"/></g><path class="cls-3" d="M315.44,81.6V70a24.72,24.72,0,0,1,1.35-8.87l.46-1H304.63l.46,1A25,25,0,0,1,306.44,70V81.6H293.36a24.36,24.36,0,0,1-8.87-1.36l-1.05-.45V92.41l1.05-.46a24.78,24.78,0,0,1,8.87-1.35h13.08v39.58a25.06,25.06,0,0,1-1.35,8.87l-.47,1h12.63l-.46-1a24.78,24.78,0,0,1-1.35-8.87V90.6h12.92A24.69,24.69,0,0,1,337.22,92l1,.46V79.79l-1,.45a24.26,24.26,0,0,1-8.86,1.36m9.16,9.67a24.84,24.84,0,0,0-9.16-1.42H314.69v40.33a24.87,24.87,0,0,0,1.42,9.17H305.77a24.87,24.87,0,0,0,1.42-9.17V89.85H293.36a24.87,24.87,0,0,0-9.17,1.42V80.93a24.87,24.87,0,0,0,9.17,1.42h13.83V70a24.87,24.87,0,0,0-1.42-9.17h10.34A24.87,24.87,0,0,0,314.69,70V82.35h13.67a24.84,24.84,0,0,0,9.16-1.42Z"/></svg>